/* XPM */
static char *_0f64888cc874185b861430f7d957a88[] = {
/* columns rows colors chars-per-pixel */
"40 40 99 2 ",
"   c None",
".  c #020202",
"X  c #0A0202",
"o  c #0C0C0C",
"O  c #120000",
"+  c #1E0000",
"@  c #1F0F0F",
"#  c #151515",
"$  c #1F1111",
"%  c #1B1B1B",
"&  c #240202",
"*  c #2E0202",
"=  c #260808",
"-  c #221E1E",
";  c #222222",
":  c #2A2121",
">  c #2B2B2B",
",  c #332222",
"<  c #3B2424",
"1  c #3C2B2B",
"2  c #353535",
"3  c #383030",
"4  c #3C3C3C",
"5  c #541717",
"6  c #5F1717",
"7  c #531818",
"8  c #6C1717",
"9  c #651C1C",
"0  c #6D1B1B",
"q  c #761818",
"w  c #442424",
"e  c #4A2727",
"r  c #542424",
"t  c #5D2525",
"y  c #433232",
"u  c #423B3B",
"i  c #4B3B3B",
"p  c #642323",
"a  c #6C2222",
"s  c #7B2424",
"d  c gray28",
"f  c #4F4E4E",
"g  c #574C4C",
"h  c #515151",
"j  c #5D5454",
"k  c gray37",
"l  c #685D5D",
"z  c #775454",
"x  c #7D5151",
"c  c #656464",
"v  c #6D6767",
"b  c #6D6D6D",
"n  c #757575",
"m  c #7D7777",
"M  c #7D7D7D",
"N  c #9F0F0F",
"B  c #841C1C",
"V  c #931414",
"C  c #9E1111",
"Z  c #951B1B",
"A  c #9B1A1A",
"S  c #AB0F0F",
"D  c #AE1717",
"F  c #B51515",
"G  c #BB1515",
"H  c #BD1D1D",
"J  c #832727",
"K  c #952121",
"L  c #B62020",
"P  c #BB2121",
"I  c #C41414",
"U  c #CA1616",
"Y  c #C41F1F",
"T  c #D21515",
"R  c #EB1D1D",
"E  c #F41D1D",
"W  c #FE1E1E",
"Q  c #FF2121",
"!  c #847E7E",
"~  c #848484",
"^  c #8C8787",
"/  c #8D8C8C",
"(  c #918C8C",
")  c #949494",
"_  c #9A9797",
"`  c #9C9B9B",
"'  c #A39F9F",
"]  c #B49898",
"[  c #A4A3A3",
"{  c #A9A7A7",
"}  c #AAA9A9",
"|  c #B1AFAF",
" . c #BAAEAE",
".. c #B4B3B3",
"X. c #B8B7B7",
"o. c #BDBCBC",
"O. c #C1BEBE",
"+. c #C3C2C2",
"@. c #CACACA",
/* pixels */
"                                                                                ",
"  @.@.                                                                          ",
"  o.@.@.+.+.                                                                    ",
"    @.@.@.+.+.o.X.                                                              ",
"    O.@.@.@.+.+.o.X.|                                                           ",
"    | @.@.] ..+.O.O...| } {                                                     ",
"      O.@.O.J J ^ | o.X.| } [ ` _                                               ",
"      X.O.+.v K q y j ( } ..{ [ ` _ / ^                                         ",
"      [ o.o.~ q S V 7 1 i c ^ { { ` ) / ~ ~ M                                   ",
"        ..o.[ y V S N p e w < u v / ` ) / ~ M n n                               ",
"        { ....g r C B I F a e w < : u l ^ / ~ ! n b c c                         ",
"        ) | ..! 1 p I U U I Z t e e < : : d c m v f 4 2 2 4                     ",
"          } } [ y e F U U T T G s p r w , - - : % o . .                         ",
"          ' } } j 1 a I U T U H E Y s t w , - - ; % % %                         ",
"          ^ [ { m < e Z T U P W Q W R K t w , - - % % % # % %                   ",
"            ` [ _ 1 1 t G Y Q Q Q Q W H Z t w , : ; % % % % # # # %             ",
"            / ` ` j < r s E Q Q Q E Y I U F 9 w , - - % % # # o o o o           ",
"              _ ` M : e p Y Q Q E L T T U U I B w - - o . . . .                 ",
"              / _ / 3 < r s R W Y T T T U U I I 8 = o . .                       ",
"              ~ / ) f : e p Z H U T U U U U G 9 = O X                           ",
"                ~ / n : , e t A U U U U U D 5 * +                               ",
"                M ~ ~ 2 : , w t G U U I D 5 * &                                 ",
"                b M ~ h ; : , e a I U F 5 *                                     ",
"                  n M c % - : , w V I 6 *                                       ",
"                  b M k % % - : , w 8 = &                                       ",
"                  k b d o % - ; - : @ O                                         ",
"                    c 2 o % % - - - X                                           ",
"                    k >   # % % - o .                                           ",
"                    h >   # % % % .                                             ",
"                      >     # % # X                                             ",
"                      >     # # o                                               ",
"                              # o                                               ",
"                              # o                                               ",
"                              # .                                               ",
"                                o                                               ",
"                                o                                               ",
"                                                                                ",
"                                                                                ",
"                                                                                ",
"                                                                                "
};
