/* XPM */
static char *e30b570e8de4430ddac2bc2b415368c0[] = {
/* columns rows colors chars-per-pixel */
"20 20 107 2 ",
"   c None",
".  c #060101",
"X  c #070707",
"o  c gray3",
"O  c #090909",
"+  c gray6",
"@  c #101010",
"#  c #151515",
"$  c gray9",
"%  c #181717",
"&  c #191818",
"*  c #191919",
"=  c #1C1919",
"-  c #1C1B1B",
";  c #1D1C1C",
":  c #360D0D",
">  c #360E0E",
",  c #3B0808",
"<  c #3A0909",
"1  c #241E1E",
"2  c #241F1F",
"3  c #251F1F",
"4  c #252020",
"5  c #322121",
"6  c #342121",
"7  c #352121",
"8  c #362121",
"9  c #362222",
"0  c #372222",
"q  c #323232",
"w  c #3D3030",
"e  c #601F1F",
"r  c #7D1C1C",
"t  c #412525",
"y  c #5F2121",
"u  c #5E2323",
"i  c #5E2424",
"p  c #5F2424",
"a  c #433636",
"s  c #493333",
"d  c #4D3636",
"f  c #622222",
"g  c #642222",
"h  c gray28",
"j  c #4F4D4D",
"k  c #4E4E4E",
"l  c #595757",
"z  c #685F5F",
"x  c #795959",
"c  c #646464",
"v  c DimGray",
"b  c #6D6D6D",
"n  c #726969",
"m  c gray45",
"M  c gray48",
"N  c #831B1B",
"B  c #9D1717",
"V  c #A20F0F",
"C  c #AB1515",
"Z  c #AD1515",
"A  c #AE1818",
"S  c #AF1818",
"D  c #B91616",
"F  c #8A3F3F",
"G  c #A32121",
"H  c #A42121",
"J  c #C41515",
"K  c #C51515",
"L  c #C91616",
"P  c #CE1616",
"I  c #C21818",
"U  c #C21919",
"Y  c #CB1818",
"T  c #D51D1D",
"R  c #D61D1D",
"E  c #E81F1F",
"W  c #F21F1F",
"Q  c #FF2121",
"!  c #815E5E",
"~  c #858282",
"^  c gray52",
"/  c #868686",
"(  c #8E8888",
")  c #8F8C8C",
"_  c gray57",
"`  c #929292",
"'  c #959090",
"]  c #959595",
"[  c #989898",
"{  c #9A9A9A",
"}  c gray63",
"|  c #A4A3A3",
" . c #A7A5A5",
".. c #A8A7A7",
"X. c #ADABAB",
"o. c #ADACAC",
"O. c #B0AFAF",
"+. c #B2B1B1",
"@. c #BBBABA",
"#. c #BCBBBB",
"$. c #BFBEBE",
"%. c gray75",
"&. c #C0BBBB",
"*. c #C0BCBC",
"=. c #C6C0C0",
"-. c #C5C5C5",
";. c gray79",
/* pixels */
"                                        ",
"  ;.-.$.                                ",
"  %.=.&.#.+...                          ",
"  O.*.F ! ' X.| [                       ",
"    @.x V e d n ) ] / M                 ",
"    o.( y D S u t a l M v k             ",
"    {  .s A P I G i 8 4 & +             ",
"      } z i U W Q T f 7 1 - * $         ",
"      ` ~ t H Q E Y J r 5 = + o X       ",
"        _ w p R Y P L Z > .             ",
"        ^ j 9 g K L B <                 ",
"        m b 2 0 N C ,                   ",
"          c % 3 6 :                     ",
"          h @ ; =                       ",
"          q   * +                       ",
"              # O                       ",
"                                        ",
"                                        ",
"                                        ",
"                                        "
};
