/* XPM */
static char *_af5c2aa51944d64bcb13745b689b32c[] = {
/* columns rows colors chars-per-pixel */
"100 100 72 1 ",
"  c None",
". c #153210",
"X c #1B3D15",
"o c #1D4316",
"O c #1F4618",
"+ c #1F4819",
"@ c #214B1A",
"# c #25541C",
"$ c #2A551D",
"% c #27591E",
"& c #285B1F",
"* c #315A1F",
"= c #2B5D22",
"- c #345D20",
"; c #2E6024",
": c #326325",
"> c #3A6524",
", c #376824",
"< c #3B6D26",
"1 c #34652C",
"2 c #38672F",
"3 c #3F7027",
"4 c #386730",
"5 c #3C6A34",
"6 c #466E27",
"7 c #466F28",
"8 c #447329",
"9 c #4C742A",
"0 c #4C7B2C",
"q c #527A2C",
"w c #52812E",
"e c #5A812F",
"r c #568630",
"t c #5D8631",
"y c #5B8A32",
"u c #618D33",
"i c #639235",
"p c #6B9436",
"a c #6B9937",
"s c #6F9D39",
"d c #739C39",
"f c #75A23B",
"g c #7BA23B",
"h c #7EAA3E",
"j c #82AB3F",
"k c #85AD40",
"l c #85B141",
"z c #8CB442",
"x c #8FBA44",
"c c #90B744",
"v c #93BB45",
"b c #98BF47",
"n c #96C047",
"m c #9CC348",
"M c #9FC84A",
"N c #A1C74A",
"B c #A5CD4C",
"V c #A9CF4D",
"C c #ABD34E",
"Z c #B1D750",
"A c #B4DB52",
"S c #B8DE53",
"D c #BCE255",
"F c #C1E756",
"G c #C3E957",
"H c #C5EB58",
"J c #C9EF5A",
"K c #CDF35B",
"L c #D1F65C",
"P c #D5FA5E",
"I c #D8FD5F",
"U c #DAFF60",
/* pixels */
"                                                                                                    ",
"                                                                                                    ",
"                                                                                                    ",
"                                                                                                    ",
"                                                                                                    ",
"                                                                                                    ",
"                 555555555                                                                          ",
"            55544441241122444555555                                                                 ",
"          55411=;=%&&&&====;;11142455555                                                            ",
"         51=====&&=%&&&&%%=&%&&&;==;;11455555                                                       ",
"        4;=%&&%%&&&&&&&&&&&&&&&&&&=&&&&&=;1545555                                                   ",
"       11=%=&%%=&&&&&&&&&&&&&&&&&&&&&&&&%&%==;1145555                                               ",
"       1=&&&&&&&&&&&&&&&&&&&&&&&&&&&&&&&&&&&&&&&==;145555                                           ",
"       ;&&&&&&&&&&&&&&&&&&&&&&&&&&&&&&&&&&&&&&&&====;;44555                                         ",
"       =&&&&&&&&&&&&&&&&&&&&&&&&&&&&&&&&&&&&&&&&&&%=&&&%;45555                                      ",
"       &&&&&&&&&&&&&&&&&&&&&&&&&&&&&&&&&&&&&&&&&&&%%&&&%===;14555                                   ",
"      ==&&&&&&&&&&&&&&&&&&&&&&&&&&&&&&&&&&&&&&&&&&&&&&&&&&&&&=;;4555                                ",
"      ==&&&&&&&&&&&&&&&&&&&&&&&&&&&&&&&&&&&&&&&&&&&&&&&&&&&&&&===;4555                              ",
"      ==&&&&&&&&&&&&&&&&&&&&&&&&&&&&&&&&&&&&&&&&&&&&&&&&&&&&&&%=&&&&11455                           ",
"      =%&&&&&&&&&&&&&&&&&&&&&&&&&&&&&&&&&&&&&&&&&&&&&&&&&&&&&&%%&&&&%=;1555                         ",
"      &&&&&&&&&&&&&&&&&&&&&&&&&&&&&&&&&&&&&&&&&&&&&&&&&&&&&&&&&&&&&&&&&==1255                       ",
"      %&&&&&&&&&&&&&&&&&&&&&&&&&&&&&&&&&&&&&&&&&&&&&&&&&&&&&&&&&&&&&&&&&&=%1555                     ",
"      %&&&&&&&&&&&&&&&&&&&&&&&&&&&&&&&&&&&&&&&&&&&&&&&&&&&&&&&&&&&&&&&&&&&&&=114                    ",
"      %&&&&&&&&&&&&&&&&&&&&&&&&&&&&&&&&&&&&&&&&&&&&&&&&&&&&&&&&&&&&&&&&&&&&&&&=155                  ",
"      @&&&&&&&&&&&&&&&&&&&&&&&&&&&&&&&&&&&&&&&&&&&&&&&&&&&&&&&&&&&&&&&&&&&&&&&%=;45                 ",
"       &&&&&&&&&&&&&&&&&&&&&&%&&&&&&&&&&&&&&&&&&&&&&&&&&&&&&&&&&&&&&&&&&&&&&&&&&%=;45               ",
"       %&&&&&&&&&&&&&&&&&&&&&=&&&&&&&&&&&&&&&&&&&&&&&&&&&&&&&&&&&&&&&&&&&&&&&&&&%&&=45              ",
"       %&&&&&&&&&&&&&&&&&&&&&&&&&&&&&&&&&&&&&&&&&&&&&&&&&&&&&&&&&&&&&&&&&&&&&&&&=%&&=45             ",
"       =&&&&&&&&&&&&&&&&&&&&&&&&&&&&&&&&&&&&&&&&&&&&&&&&&&&&&&&&&&&&&&&&&&&&&&&&&&&&=&15            ",
"       %&&&&&&&&&&&&&&&&&&&&&&&&&&&&&&&&&&&&&&&&&&&&&&&&&&&&&&&&&&&&&&&&&&&&&&&&&&&&%%=24           ",
"       #&&&&&&&&&&&&&&&&&&&&&&&&&&&&&&&&&&&&&&&&&&&&&&&&&&&&&&&&&&&&&&&&&&&&&&&&&&&&&&==1           ",
"       @&&&&&&&&&&&&&&&&&&&&&&&&&&&&&&&&&&&&&&&&&&&&&&&&&&&&&&&&&&&&&&&&&&&&&&&&&&&&&&&%;5          ",
"       @&&&&&&&&&&&&&&&&&&&&&&&&&&&&&&&&&&&&&&&&&&&&&&&&&&&&&&&&&&&&&&&&&&&&&&&&&&&&&&&&&;4         ",
"        &&&&&&&&&&&&&&&&&&&&&&&&&&&&&&&&&&&&&&&&&&&&&&&&&&&&&&&&&&&&&&&&&&&&&&&&&&&&&&&&&%1         ",
"        %%&&&&&&&&&&&&&&&&&&&&&&&&&&&&&&&&&&&&&&&&&&&&&&&&&&&&&&&&&&&&&&&&&&&&&&&&&&&&&&=%=1        ",
"        +&&&&&&&&&&&&&&&&&&&&&&&&&&&&&&&&&&&&&&&&&&&&&&&&&&&&&&&&&&&&&&&&&&&&&&&&&&&&&&&%==1        ",
"        @&&&&&&&&&&&&&&&&&&&&&&&&&=;&&&&&&&&&&&&&&&&&&&&&&&&&&&&%&&&&&&&&&&&&&&&&&&&&&&&&&&;1       ",
"         &&&&&&&&&&&&&&&&&&&&&&&&;0slnmmnld8*&&&&&&&&&&&fMMNMMMMMMvki8=&&&&&&&&&&&&&&&&&&&&=:       ",
"         %&&&&&&&&&&&&&&&&&&&&&&ixZDKPUUPKHZmi:&&&&&&&&&NUUUUUIIUIPLDCk<&&&&&&&&&&&&&&&&&&%=;       ",
"         #&&&&&&&&&&&&&&&&&&&&eCUIUUUUUUUUIIIILa;&&&&&&&MUUUUUUIUUIUUIUIi&&&&&&&&&&&&&&&%=%==       ",
"         %&&&&&&&&&&&&&&&&&&;hLIUUKZBbcjvNCKIIIIu&&&&&&&MUUZmbmmmmNCHIUUKy;&&&&&&&&&&&&&&&&&%       ",
"         @&&&&&&&&&&&&&&&&&=xPIIZgq>#@@@@$*qdDIUi&&&&&&&MUUt@@@@OO@$7dHUIC0&&&&&&&&&&&&&&&&&=;      ",
"          &%&&&&&&&&&&&&&&&iLIIA9&@@##%$##$@$qNIi&&&&&&&MUUu#####%##@$gIILa&&&&&&&&&&&&&&&&&&;      ",
"          &%&&&&&&&&&&&&&&0DILg*#%%=&&&&&&&$%#@q0&&&&&&&MUUi=&&&&&&&&$@CIIN&&&&&&&&&&&&&&&&&&=      ",
"          #=&&&&&&&&&&&&&:fIIA>#&&&&&&&&&&&&&&#@%%=%&&&&MUUi&&&&&&&&&&%pUUD&&&&&&&&&&&&&&&&&&=      ",
"          .%&&&&&&&&&&&&=qAIIp#&&&&&&&&&&&&&&&&&%%&&&&&&MUUi&&&&&&&&&&&>UUK&&&&&&&&&&&&&&&&&&%      ",
"           %&&&&&&&&&&&&&fUII$&&&&&&&&&&&&&&&&&&&&&&&&&%MUUi&&&&&&&&&&%&UUI&&&&&&&&&&&&&&&&&&%      ",
"           #&&&&&&&&&&&&&NUIv&&&&&&&&&&&&&&&&&&&&&&&&&&=MUUu&&&&&&&&&&%8UIL&&&&&&&&&&&&&&&&&&@      ",
"           O&&&&&&&&&&&&&DIIu&&&&&&&&&&&&&&&&&&&&&&&&&&&MUUi%&&&&&&&&&&zIUD&&&&&&&&&&&&&&&&&&       ",
"            %&&&&&&&%&&&&JUU9&&&&&&&&&&&&&&&&&&&&&&&&&&&MUUi=%&&&&&&&&8JIIN&&&&&&&&&&&&&&&&&&       ",
"            #&&&&&&&&&&&&PUU&&&&&&&&&&&UUUUUUUUUUU&&&&&&MUUi&&&&&&;,wfHIIHe&&&&&&&&&&&&&&&&&&       ",
"            @&&&&&&&&&&&&IUU&&&&&&&&&&&UUUUUUUUUUU&&&&&&MUUziiiiiisjAPIIIj>&&&&&&&&&&&&&&&&&%       ",
"             %%=&&&&&&&&&IUU;&&&&&&&&&&UUUUUIUUUUU&&&&&&NUUUUUUUUUUUUUUUv-%&&&&&&&&&&&&&&&&&@       ",
"             #%%&&&&&&&&%KUU8&&&&&&&&&&@@@@@@@@UUU&&&&&&MUUUUUUUUUUUUIFe@%&&&&&&&&&&&&&&&&&&@       ",
"             O&&&&&&&&&&%AUUi&&&&&&&&&&@@@@@@##UUU%&&&&&MUUZmmmmbbcju6@@#&&&&&&&&&&&&&&&&&&@        ",
"              %&&&&&&&&&&mUUm%&&&&&&&&&==&&&&&&UUU=%&&&&MUIt++++@@@@@@%%&&&&&&&&&&&&&&&&&&&O        ",
"              @&&&&&&&&&=gIIH;&&&&&&&&&&&&&&&&&UUU&&&&&&MUUu%%##%%#%%%&&&&&&&&&&&&&&&&&&&&%         ",
"               &&&&&&&&&&qAIId&&&&&&&&&&&&&&&&=UUU&&&&&&MUUi%&=%&&%%&%&&&&&&&&&&&&&&&&&&&&@         ",
"               %&&&&&&&&&,jIIC,%&&&&&&&&&&&&&&=UUU&&&&&&MUUi&&%%&&&&&&&&&&&&&&&&&&&&&&&&&&O         ",
"               o&&&&&&&&%%7DIPj<&&&&&&&&&&&&&&&UUU&&&&&&MUUi&&%=&&&&&&&&&&&&&&&&&&&&&&&&&%          ",
"                #&&&&&&&&&%dIUIB;&&&&&&&&&&&&&=UUU%=&&&&MUUi&&&&&&&&&&&&&&&&&&&&&&&&&&&&&.          ",
"                #%&&&&&&&&%$cPUUAjr8:&&&%=&,8yvUUU&%&&&&MUUi&&&&&&&&&&&&&&&&&&&&&&&&&&&&#           ",
"                X%&&&&&&&&&%@gKUIIKAVmvvxnNCAKUUPB&&&&&&MUUi&&&&&&&&&&&&&&&&&&&&&&&&&&&%X           ",
"                 #&&&&&&&&&&%-dAUIUIIIILPIUUUUUSd8&&&&&%MUUi&&&&&&&&&&&&&&&&&&&&&&&&&&&O            ",
"                 X&&&&&&&&&&&%@@kFUUUUUUUUUUICe@@@&&&&&&NUUi=&&&&&&&&&&&&&&&&&&&&&&&&&%             ",
"                  %&&&&&&&&&&&%#@@6pjvbbckdq*@@#&&&&&&&&dmm0&&&&&&&&&&&&&&&&&&&&&&&&&%o             ",
"                  O&&&&&&&&&&&&&%%#@@@@@@@@@#%%&&&&&&&&&@+O%&&&&&&&&&&&&&&&&&&&&&&&&&#              ",
"                   %&&&&&&&&&&&&&%%%#####%$&&&&&&&&&&&&&%#%%&&&&&&&&&&&&&&&&&&&&&&&&&               ",
"                   X=%&&&&&&&&&&&&&&&&&&%=&&&&&&&&&&&&&&&&&&&&&&&&&&&&&&&&&&&&&&&&&%X               ",
"                    %&&&&&&&&&&&&&&&&&&&%%&&&&&&&&&&&&&&&&&&&&&&&&&&&&&&&&&&&&&&&&&#                ",
"                    @&&&&&&&&&&&&&&&&&&&=&&&&&&&&&&&&&&&&&&&&&&&&&&&&&&&&&&&&&&&&&#                 ",
"                     &&&&&&&&&&&&&&&&&&&%%&&&&&&&&&&&&&&&&&&&&&&&&&&&&&&&&&&&&&&&&                  ",
"                     o&&&&&&&&&&&&&&&&&&&&&&&&&&&&&&&&&&&&&&&&&&&&&&&&&&&&&&&&&&%+                  ",
"                      #&&&&&&&&&&&&&&&&&&&&&&&&&&&&&&&&&&&&&&&&&&&&&&&&&&&&&&&&&O                   ",
"                      o&&&&&&&&&&&&&&&&&&&&&&&&&&&&&&&&&&&&&&&&&&&&&&&&&&&&&&&&#                    ",
"                       #$%&&&&&&&&&&&&&&&&&&&&&&&&&&&&&&&&&&&&&&&&&&&&&&&&&&&%#                     ",
"                       o%&&&&&&&&&&&&&&&&&&&&&&&&&&&&&&&&&&&&&&&&&&&&&&&&&&&&%                      ",
"                        O&&&&&&&&&&&&&&&&&&&&&&&&&&&&&&&&&&&&&&&&&&&&&&&&&&%%X                      ",
"                         %%&&&&&&&&&&&&&&&&&&&&&&&&&&&&&&&&&&&&&&&&&&&&&&&&%X                       ",
"                         X%&&&&&&&&&&&&&&&&&&&&&&&&&&&&&&&&&&&&&&&&&&&&&&&%                         ",
"                          o%&&&&&&&&&&&&&&&&&&&&&&&&&&&&&&&&&&&&&&&&&&&&%%o                         ",
"                           #&&&&&&&&&&&&&&&&&&&&&&&&&&&&&&&&&&&&&&&&&&&&%o                          ",
"                            %&&&&&&&&&&&&&&&&&&&&&&&&&&&&&&&&&&&&&&&&&&#                            ",
"                            X%&&&&&&&&&&&&&&&&&&&&&&&&&&&&&&&&&&&&&&&&#X                            ",
"                             O%%&&&&&&&&&&&&&&&&&&&&&&&&&&&&&&&&&&&&%%                              ",
"                              @%&%&&&&&&&&&&&&&&&&&&&&&&&&&&&&&&&&&&@                               ",
"                               o%%&&&&&&&&&&&&&&&&&&&&&&&&&&&&&&&&#O                                ",
"                                o#&&&&&&&&&&&&&&&&&&&&&&&&&&&&&&&@                                  ",
"                                  %%%&&&&&&&&&&&&&&&&&&&&&&&&&&&O                                   ",
"                                   #&&&&&&&&&&&&&&&&&&&&&&&&&&@                                     ",
"                                    X#%%&&&&&&&&&&&&&&&&&&&%#                                       ",
"                                       @&&&&&&&&&&&&&&&&&#o                                         ",
"                                        X@%%&&&&&%&&&&%@o                                           ",
"                                             X@###@O.                                               ",
"                                                                                                    ",
"                                                                                                    ",
"                                                                                                    ",
"                                                                                                    ",
"                                                                                                    ",
"                                                                                                    "
};
